<?xml version="1.0" encoding="utf-8"?>
<!-- Generator: Adobe Illustrator 22.0.0, SVG Export Plug-In . SVG Version: 6.00 Build 0)  -->
<svg version="1.1" id="Layer_1" xmlns="http://www.w3.org/2000/svg" xmlns:xlink="http://www.w3.org/1999/xlink" x="0px" y="0px"
	 viewBox="0 0 79.1 79.1" style="enable-background:new 0 0 79.1 79.1;" xml:space="preserve">
<style type="text/css">
	.st0{clip-path:url(#SVGID_2_);fill:url(#SVGID_3_);}
	.st1{clip-path:url(#SVGID_5_);fill:url(#SVGID_6_);}
	.st2{clip-path:url(#SVGID_8_);fill:url(#SVGID_9_);}
	.st3{clip-path:url(#SVGID_11_);fill:url(#SVGID_12_);}
	.st4{clip-path:url(#SVGID_14_);fill:url(#SVGID_15_);}
	.st5{clip-path:url(#SVGID_17_);fill:url(#SVGID_18_);}
	.st6{clip-path:url(#SVGID_20_);fill:url(#SVGID_21_);}
	.st7{clip-path:url(#SVGID_23_);fill:url(#SVGID_24_);}
	.st8{clip-path:url(#SVGID_26_);fill:url(#SVGID_27_);}
	.st9{fill:#FFFFFF;}
	.st10{clip-path:url(#SVGID_29_);fill:url(#SVGID_30_);}
	.st11{clip-path:url(#SVGID_32_);fill:url(#SVGID_33_);}
	.st12{clip-path:url(#SVGID_35_);fill:url(#SVGID_36_);}
	.st13{clip-path:url(#SVGID_38_);fill:url(#SVGID_39_);}
	.st14{clip-path:url(#SVGID_41_);fill:url(#SVGID_42_);}
	.st15{clip-path:url(#SVGID_44_);fill:url(#SVGID_45_);}
	.st16{clip-path:url(#SVGID_47_);fill:url(#SVGID_48_);}
	.st17{clip-path:url(#SVGID_50_);fill:url(#SVGID_51_);}
	.st18{clip-path:url(#SVGID_53_);fill:url(#SVGID_54_);}
</style>
<g>
	<g>
		<defs>
			<path id="SVGID_1_" d="M42.5,73c6.3,5.4,8.5,0.2,12.4-0.3c2.2-4.6,1.9-7.8,4.2-12.4C52.1,63.6,49.3,69.8,42.5,73"/>
		</defs>
		<clipPath id="SVGID_2_">
			<use xlink:href="#SVGID_1_"  style="overflow:visible;"/>
		</clipPath>
		
			<linearGradient id="SVGID_3_" gradientUnits="userSpaceOnUse" x1="-188.8608" y1="393.1039" x2="-188.3219" y2="393.1039" gradientTransform="matrix(50.951 -57.9963 -57.9963 -50.951 32455.418 9163.998)">
			<stop  offset="0" style="stop-color:#ECBC21"/>
			<stop  offset="0.1151" style="stop-color:#EBA21C"/>
			<stop  offset="0.3603" style="stop-color:#E95F10"/>
			<stop  offset="0.402" style="stop-color:#E9530E"/>
			<stop  offset="0.4905" style="stop-color:#DC4026"/>
			<stop  offset="0.6762" style="stop-color:#BA0E63"/>
			<stop  offset="0.6976" style="stop-color:#B6086A"/>
			<stop  offset="0.7223" style="stop-color:#A90864"/>
			<stop  offset="0.8517" style="stop-color:#6A0648"/>
			<stop  offset="0.9463" style="stop-color:#430436"/>
			<stop  offset="0.9955" style="stop-color:#34042F"/>
			<stop  offset="1" style="stop-color:#34042F"/>
		</linearGradient>
		<polygon class="st0" points="33.5,70.5 49.7,52.2 67.9,68.2 51.8,86.6 		"/>
	</g>
	<g>
		<defs>
			<path id="SVGID_4_" d="M30.3,65.7c5.4,5.4,11.2,5.6,14.6,3.3c3-4.6,6-9.2,9-13.8C46.5,58.4,37.7,62.4,30.3,65.7"/>
		</defs>
		<clipPath id="SVGID_5_">
			<use xlink:href="#SVGID_4_"  style="overflow:visible;"/>
		</clipPath>
		
			<linearGradient id="SVGID_6_" gradientUnits="userSpaceOnUse" x1="-188.8607" y1="393.2405" x2="-188.3219" y2="393.2405" gradientTransform="matrix(50.951 -57.9963 -57.9963 -50.951 32455.418 9163.998)">
			<stop  offset="0" style="stop-color:#ECBC21"/>
			<stop  offset="0.1151" style="stop-color:#EBA21C"/>
			<stop  offset="0.3603" style="stop-color:#E95F10"/>
			<stop  offset="0.402" style="stop-color:#E9530E"/>
			<stop  offset="0.4905" style="stop-color:#DC4026"/>
			<stop  offset="0.6762" style="stop-color:#BA0E63"/>
			<stop  offset="0.6976" style="stop-color:#B6086A"/>
			<stop  offset="0.7223" style="stop-color:#A90864"/>
			<stop  offset="0.8517" style="stop-color:#6A0648"/>
			<stop  offset="0.9463" style="stop-color:#430436"/>
			<stop  offset="0.9955" style="stop-color:#34042F"/>
			<stop  offset="1" style="stop-color:#34042F"/>
		</linearGradient>
		<polygon class="st1" points="22.4,64.2 40.6,43.6 61.8,62.2 43.6,82.9 		"/>
	</g>
	<g>
		<defs>
			<path id="SVGID_7_" d="M29.3,63.8c5.6,1.5,8,1.6,12.5,0.7c4-1.3,4.8-2.1,6.9-4.5c-1.5,2.7-8.8,9.6-12.2,10.6
				c3.3,1.7,5.9,3.1,12.4-0.1c1.9-0.8,5.8-6.1,6.4-7.5c-0.2,1.6-4.6,10.6-6,11.8c0.7,0.8,1.8,1.2,3.1,1.2h0.1c3.3,0,7.7-2.4,8.1-5
				v-5.5c-3.1-12.3-10.2-11.9-16.1-14.8C40.1,57.1,33.6,61.6,29.3,63.8"/>
		</defs>
		<clipPath id="SVGID_8_">
			<use xlink:href="#SVGID_7_"  style="overflow:visible;"/>
		</clipPath>
		
			<linearGradient id="SVGID_9_" gradientUnits="userSpaceOnUse" x1="-187.8811" y1="394.5931" x2="-187.3423" y2="394.5931" gradientTransform="matrix(46.2204 -34.8296 -34.8296 -46.2204 22462.4082 11765.248)">
			<stop  offset="0" style="stop-color:#ECBC21"/>
			<stop  offset="0.1151" style="stop-color:#EBA21C"/>
			<stop  offset="0.3603" style="stop-color:#E95F10"/>
			<stop  offset="0.402" style="stop-color:#E9530E"/>
			<stop  offset="0.4905" style="stop-color:#DC4026"/>
			<stop  offset="0.6762" style="stop-color:#BA0E63"/>
			<stop  offset="0.6976" style="stop-color:#B6086A"/>
			<stop  offset="0.7223" style="stop-color:#A90864"/>
			<stop  offset="0.8517" style="stop-color:#6A0648"/>
			<stop  offset="0.9463" style="stop-color:#430436"/>
			<stop  offset="0.9955" style="stop-color:#34042F"/>
			<stop  offset="1" style="stop-color:#34042F"/>
		</linearGradient>
		<polygon class="st2" points="17.2,59.8 49.2,35.6 72.7,66.8 40.6,91 		"/>
	</g>
	<g>
		<defs>
			<path id="SVGID_10_" d="M26.6,45.6l24.4-4.7l0.1-4.1l-38.3-7.3C13.7,40.4,20.8,41.6,26.6,45.6"/>
		</defs>
		<clipPath id="SVGID_11_">
			<use xlink:href="#SVGID_10_"  style="overflow:visible;"/>
		</clipPath>
		
			<linearGradient id="SVGID_12_" gradientUnits="userSpaceOnUse" x1="-190.804" y1="396.2908" x2="-190.2652" y2="396.2908" gradientTransform="matrix(70.9952 0 0 -70.9952 13558.917 28172.252)">
			<stop  offset="0" style="stop-color:#ECBC21"/>
			<stop  offset="0.1151" style="stop-color:#EBA21C"/>
			<stop  offset="0.3603" style="stop-color:#E95F10"/>
			<stop  offset="0.402" style="stop-color:#E9530E"/>
			<stop  offset="0.4905" style="stop-color:#DC4026"/>
			<stop  offset="0.6762" style="stop-color:#BA0E63"/>
			<stop  offset="0.6976" style="stop-color:#B6086A"/>
			<stop  offset="0.7223" style="stop-color:#A90864"/>
			<stop  offset="0.8517" style="stop-color:#6A0648"/>
			<stop  offset="0.9463" style="stop-color:#430436"/>
			<stop  offset="0.9955" style="stop-color:#34042F"/>
			<stop  offset="1" style="stop-color:#34042F"/>
		</linearGradient>
		<rect x="12.7" y="29.4" class="st3" width="38.3" height="16.1"/>
	</g>
	<g>
		<defs>
			<path id="SVGID_13_" d="M26.1,35.3l24.8,5.5l8.7-4.2l0.1-8.3L18,12.6L7.1,4.4C3.7,32.1,19,38.5,26.1,35.3"/>
		</defs>
		<clipPath id="SVGID_14_">
			<use xlink:href="#SVGID_13_"  style="overflow:visible;"/>
		</clipPath>
		
			<linearGradient id="SVGID_15_" gradientUnits="userSpaceOnUse" x1="-191.7648" y1="392.9252" x2="-191.226" y2="392.9252" gradientTransform="matrix(158.7758 -87.6489 -87.6489 -158.7758 64881.0547 45622.4805)">
			<stop  offset="0" style="stop-color:#ECBC21"/>
			<stop  offset="0.1151" style="stop-color:#EBA21C"/>
			<stop  offset="0.3603" style="stop-color:#E95F10"/>
			<stop  offset="0.402" style="stop-color:#E9530E"/>
			<stop  offset="0.4905" style="stop-color:#DC4026"/>
			<stop  offset="0.6762" style="stop-color:#BA0E63"/>
			<stop  offset="0.6976" style="stop-color:#B6086A"/>
			<stop  offset="0.7223" style="stop-color:#A90864"/>
			<stop  offset="0.8517" style="stop-color:#6A0648"/>
			<stop  offset="0.9463" style="stop-color:#430436"/>
			<stop  offset="0.9955" style="stop-color:#34042F"/>
			<stop  offset="1" style="stop-color:#34042F"/>
		</linearGradient>
		<polygon class="st4" points="-11.8,12.9 46.6,-19.3 75.2,32.3 16.8,64.6 		"/>
	</g>
	<g>
		<defs>
			<path id="SVGID_16_" d="M20.8,24.7l32.8,10.1l-6.8-9.9C23.4,18.8,17.6,18.2,7.7,9.8C9.2,17.2,13.4,20.8,20.8,24.7"/>
		</defs>
		<clipPath id="SVGID_17_">
			<use xlink:href="#SVGID_16_"  style="overflow:visible;"/>
		</clipPath>
		
			<linearGradient id="SVGID_18_" gradientUnits="userSpaceOnUse" x1="-190.0541" y1="392.3087" x2="-189.5154" y2="392.3087" gradientTransform="matrix(62.3685 -78.4079 -78.4079 -62.3685 42624.1133 9613.4541)">
			<stop  offset="0" style="stop-color:#ECBC21"/>
			<stop  offset="0.1151" style="stop-color:#EBA21C"/>
			<stop  offset="0.3603" style="stop-color:#E95F10"/>
			<stop  offset="0.402" style="stop-color:#E9530E"/>
			<stop  offset="0.4905" style="stop-color:#DC4026"/>
			<stop  offset="0.6762" style="stop-color:#BA0E63"/>
			<stop  offset="0.6976" style="stop-color:#B6086A"/>
			<stop  offset="0.7223" style="stop-color:#A90864"/>
			<stop  offset="0.8517" style="stop-color:#6A0648"/>
			<stop  offset="0.9463" style="stop-color:#430436"/>
			<stop  offset="0.9955" style="stop-color:#34042F"/>
			<stop  offset="1" style="stop-color:#34042F"/>
		</linearGradient>
		<polygon class="st5" points="-4.5,25.1 25.5,-12.6 65.8,19.5 35.8,57.2 		"/>
	</g>
	<g>
		<defs>
			<path id="SVGID_19_" d="M6.6,3.2c0.1,1.3,0.6,4.3,1.7,5.5c1.5,2,3.6,7.1,27.1,11.9C51.1,23.8,55.9,30.8,56,31.2
				c0.1,0.3-7-7.7-20.8-9.8c-19.4-2.9-27-10.5-26.9-10.2C14.6,26,35.5,31,48.6,32.7c-15-0.6-32.6-7.8-40.5-16.3
				c1.5,21.7,34.8,18.4,42.6,19.5c-4.6,0.1-30.5,0.3-41.7-8.8c8,18.4,48.6,9.4,51.5,21.9l0-16.2C60.5,30.3,64,22.8,71,22.5
				c0.6-0.1,1-0.2,1.5-0.2c-1.2-1.1-1.6-1.3-2.8-2.9c0.2-1.7-0.6-4.7-1.4-6.9c-2.8-7.9-12.6-9.5-19-5.3c-3.5,2.4-5.4,6.9-4.7,10.5
				C32.6,18.3,20.3,14.3,6.6,3.2z"/>
		</defs>
		<clipPath id="SVGID_20_">
			<use xlink:href="#SVGID_19_"  style="overflow:visible;"/>
		</clipPath>
		
			<linearGradient id="SVGID_21_" gradientUnits="userSpaceOnUse" x1="-192.8683" y1="393.3882" x2="-192.3293" y2="393.3882" gradientTransform="matrix(204.3248 54.7487 54.7487 -204.3248 17854.1582 90949.3281)">
			<stop  offset="0" style="stop-color:#ECBC21"/>
			<stop  offset="0.1151" style="stop-color:#EBA21C"/>
			<stop  offset="0.3603" style="stop-color:#E95F10"/>
			<stop  offset="0.402" style="stop-color:#E9530E"/>
			<stop  offset="0.4905" style="stop-color:#DC4026"/>
			<stop  offset="0.6762" style="stop-color:#BA0E63"/>
			<stop  offset="0.6976" style="stop-color:#B6086A"/>
			<stop  offset="0.7223" style="stop-color:#A90864"/>
			<stop  offset="0.8517" style="stop-color:#6A0648"/>
			<stop  offset="0.9463" style="stop-color:#430436"/>
			<stop  offset="0.9955" style="stop-color:#34042F"/>
			<stop  offset="1" style="stop-color:#34042F"/>
		</linearGradient>
		<polygon class="st6" points="11,-13.5 84,6.1 68.1,65.5 -4.9,45.9 		"/>
	</g>
	<g>
		<g>
			<g>
				<defs>
					<path id="SVGID_22_" d="M55.8,23c-1.5-1.5-2.1-6.5,0.8-9.1c2.7-2.5,8.1-3.3,10.9-0.2c1.1,1.2,2.4,4,2.2,5.7
						c1.2,1.6,1.6,1.8,2.8,2.9c-0.6,0-0.9,0.1-1.5,0.2c-6.9,0.4-10.5,7.8-10.4,10.3C60.6,32.8,58,25.3,55.8,23"/>
				</defs>
				<clipPath id="SVGID_23_">
					<use xlink:href="#SVGID_22_"  style="overflow:visible;"/>
				</clipPath>
				
					<linearGradient id="SVGID_24_" gradientUnits="userSpaceOnUse" x1="-193.2062" y1="394.6148" x2="-192.6668" y2="394.6148" gradientTransform="matrix(107.1507 55.7791 55.7791 -107.1507 -1278.4872 53064.8672)">
					<stop  offset="0" style="stop-color:#ECBC21"/>
					<stop  offset="0.1151" style="stop-color:#EBA21C"/>
					<stop  offset="0.3603" style="stop-color:#E95F10"/>
					<stop  offset="0.402" style="stop-color:#E9530E"/>
					<stop  offset="0.4905" style="stop-color:#DC4026"/>
					<stop  offset="0.6762" style="stop-color:#BA0E63"/>
					<stop  offset="0.6976" style="stop-color:#B6086A"/>
					<stop  offset="0.7223" style="stop-color:#A90864"/>
					<stop  offset="0.8517" style="stop-color:#6A0648"/>
					<stop  offset="0.9463" style="stop-color:#430436"/>
					<stop  offset="0.9955" style="stop-color:#34042F"/>
					<stop  offset="1" style="stop-color:#34042F"/>
				</linearGradient>
				<polygon class="st7" points="57.7,2.9 81.6,15.3 68.5,40.5 44.7,28 				"/>
			</g>
		</g>
	</g>
	<g>
		<defs>
			<path id="SVGID_25_" d="M59.7,14.2c-5.3,4.4-1,8.7,0.8,18.4c0,0,0.6-6.3,7.6-9.5l1.5-3.7c-0.8-4.5-3.8-6.3-6.5-6.3
				C61.8,13,60.6,13.4,59.7,14.2"/>
		</defs>
		<clipPath id="SVGID_26_">
			<use xlink:href="#SVGID_25_"  style="overflow:visible;"/>
		</clipPath>
		
			<linearGradient id="SVGID_27_" gradientUnits="userSpaceOnUse" x1="-193.134" y1="393.7758" x2="-192.5958" y2="393.7758" gradientTransform="matrix(163.3106 78.9474 78.9474 -163.3106 456.7161 79549.6797)">
			<stop  offset="0" style="stop-color:#ECBC21"/>
			<stop  offset="0.1151" style="stop-color:#EBA21C"/>
			<stop  offset="0.3603" style="stop-color:#E95F10"/>
			<stop  offset="0.402" style="stop-color:#E9530E"/>
			<stop  offset="0.4905" style="stop-color:#DC4026"/>
			<stop  offset="0.6762" style="stop-color:#BA0E63"/>
			<stop  offset="0.6976" style="stop-color:#B6086A"/>
			<stop  offset="0.7223" style="stop-color:#A90864"/>
			<stop  offset="0.8517" style="stop-color:#6A0648"/>
			<stop  offset="0.9463" style="stop-color:#430436"/>
			<stop  offset="0.9955" style="stop-color:#34042F"/>
			<stop  offset="1" style="stop-color:#34042F"/>
		</linearGradient>
		<polygon class="st8" points="57.3,7 77.3,16.7 66.8,38.5 46.7,28.9 		"/>
	</g>
	<path class="st9" d="M64.6,16.8c-0.6,0-1.1,0.5-1.1,1.1c0,0.6,0.5,1.1,1.1,1.1c0.6,0,1.1-0.5,1.1-1.1
		C65.8,17.3,65.2,16.8,64.6,16.8"/>
	<g>
		<defs>
			<path id="SVGID_28_" d="M8.3,8.7c1.5,2,3.6,7.1,27.1,11.9C51.1,23.9,55.8,30.8,56,31.2c0.1,0.3-7-7.7-20.7-9.8
				C15.8,18.5,8.3,11,8.4,11.3C14.6,26.1,35.5,31,48.6,32.7c-15-0.6-32.5-7.8-40.4-16.3c1.5,21.7,34.8,18.4,42.6,19.5
				c-4.6,0.1-30.4,0.3-41.6-8.8c8,18.4,48.6,9.4,51.5,21.9l0-16.2c-0.1-2.5-0.8-7.7-7.9-12.2c-2.6-1.6-8.5-2.8-8.8-2.8
				C32.1,18.2,20,14.1,6.6,3.2C6.7,4.6,7.2,7.5,8.3,8.7"/>
		</defs>
		<clipPath id="SVGID_29_">
			<use xlink:href="#SVGID_28_"  style="overflow:visible;"/>
		</clipPath>
		
			<linearGradient id="SVGID_30_" gradientUnits="userSpaceOnUse" x1="-193.0612" y1="393.8921" x2="-192.5221" y2="393.8921" gradientTransform="matrix(159.5552 73.7249 73.7249 -159.5552 1755.2662 77087.3906)">
			<stop  offset="0" style="stop-color:#ECBC21"/>
			<stop  offset="0.1151" style="stop-color:#EBA21C"/>
			<stop  offset="0.3603" style="stop-color:#E95F10"/>
			<stop  offset="0.402" style="stop-color:#E9530E"/>
			<stop  offset="0.4905" style="stop-color:#DC4026"/>
			<stop  offset="0.6762" style="stop-color:#BA0E63"/>
			<stop  offset="0.6976" style="stop-color:#B6086A"/>
			<stop  offset="0.7223" style="stop-color:#A90864"/>
			<stop  offset="0.8517" style="stop-color:#6A0648"/>
			<stop  offset="0.9463" style="stop-color:#430436"/>
			<stop  offset="0.9955" style="stop-color:#34042F"/>
			<stop  offset="1" style="stop-color:#34042F"/>
		</linearGradient>
		<polygon class="st10" points="16.1,-17.3 78,11.3 51,69.5 -10.8,40.9 		"/>
	</g>
	<g>
		<defs>
			<path id="SVGID_31_" d="M20.7,33.1l32.8,10.1l-6.8-9.9c-23.4-6.2-29.1-6.7-39.1-15.1C9.1,25.6,13.4,29.2,20.7,33.1"/>
		</defs>
		<clipPath id="SVGID_32_">
			<use xlink:href="#SVGID_31_"  style="overflow:visible;"/>
		</clipPath>
		
			<linearGradient id="SVGID_33_" gradientUnits="userSpaceOnUse" x1="-190.3088" y1="394.2261" x2="-189.7699" y2="394.2261" gradientTransform="matrix(86.2719 -30.0431 -30.0431 -86.2719 28254.1738 28337.2793)">
			<stop  offset="0" style="stop-color:#ECBC21"/>
			<stop  offset="0.1151" style="stop-color:#EBA21C"/>
			<stop  offset="0.3603" style="stop-color:#E95F10"/>
			<stop  offset="0.402" style="stop-color:#E9530E"/>
			<stop  offset="0.4905" style="stop-color:#DC4026"/>
			<stop  offset="0.6762" style="stop-color:#BA0E63"/>
			<stop  offset="0.6976" style="stop-color:#B6086A"/>
			<stop  offset="0.7223" style="stop-color:#A90864"/>
			<stop  offset="0.8517" style="stop-color:#6A0648"/>
			<stop  offset="0.9463" style="stop-color:#430436"/>
			<stop  offset="0.9955" style="stop-color:#34042F"/>
			<stop  offset="1" style="stop-color:#34042F"/>
		</linearGradient>
		<polygon class="st11" points="-0.1,20.9 48.6,3.9 61.3,40.5 12.6,57.5 		"/>
	</g>
	<g>
		<defs>
			<path id="SVGID_34_" d="M43,38.2c-4.7-8.4-22.3-7.2-34.4-18C14.5,37.7,29.4,35.1,43,38.2"/>
		</defs>
		<clipPath id="SVGID_35_">
			<use xlink:href="#SVGID_34_"  style="overflow:visible;"/>
		</clipPath>
		
			<linearGradient id="SVGID_36_" gradientUnits="userSpaceOnUse" x1="-190.5814" y1="393.8439" x2="-190.0425" y2="393.8439" gradientTransform="matrix(93.0264 -41.418 -41.418 -93.0264 34043.1992 28784.2188)">
			<stop  offset="0" style="stop-color:#ECBC21"/>
			<stop  offset="0.1151" style="stop-color:#EBA21C"/>
			<stop  offset="0.3603" style="stop-color:#E95F10"/>
			<stop  offset="0.402" style="stop-color:#E9530E"/>
			<stop  offset="0.4905" style="stop-color:#DC4026"/>
			<stop  offset="0.6762" style="stop-color:#BA0E63"/>
			<stop  offset="0.6976" style="stop-color:#B6086A"/>
			<stop  offset="0.7223" style="stop-color:#A90864"/>
			<stop  offset="0.8517" style="stop-color:#6A0648"/>
			<stop  offset="0.9463" style="stop-color:#430436"/>
			<stop  offset="0.9955" style="stop-color:#34042F"/>
			<stop  offset="1" style="stop-color:#34042F"/>
		</linearGradient>
		<polygon class="st12" points="1.9,23.2 37.3,7.4 49.7,35.2 14.3,51 		"/>
	</g>
	<g>
		<defs>
			<path id="SVGID_37_" d="M59.2,41.7C49.9,23.2,29,28.1,15.3,19.5C18.5,32.7,44.6,34.6,59.2,41.7"/>
		</defs>
		<clipPath id="SVGID_38_">
			<use xlink:href="#SVGID_37_"  style="overflow:visible;"/>
		</clipPath>
		
			<linearGradient id="SVGID_39_" gradientUnits="userSpaceOnUse" x1="-190.6991" y1="393.4807" x2="-190.1603" y2="393.4807" gradientTransform="matrix(96.3324 -57.198 -57.198 -96.3324 40885.168 27045.082)">
			<stop  offset="0" style="stop-color:#ECBC21"/>
			<stop  offset="0.1151" style="stop-color:#EBA21C"/>
			<stop  offset="0.3603" style="stop-color:#E95F10"/>
			<stop  offset="0.402" style="stop-color:#E9530E"/>
			<stop  offset="0.4905" style="stop-color:#DC4026"/>
			<stop  offset="0.6762" style="stop-color:#BA0E63"/>
			<stop  offset="0.6976" style="stop-color:#B6086A"/>
			<stop  offset="0.7223" style="stop-color:#A90864"/>
			<stop  offset="0.8517" style="stop-color:#6A0648"/>
			<stop  offset="0.9463" style="stop-color:#430436"/>
			<stop  offset="0.9955" style="stop-color:#34042F"/>
			<stop  offset="1" style="stop-color:#34042F"/>
		</linearGradient>
		<polygon class="st13" points="5.6,25.3 47.8,0.2 69,35.9 26.8,60.9 		"/>
	</g>
	<g>
		<defs>
			<path id="SVGID_40_" d="M36.4,47.1l22.9,6.1l-5-9.3c-23.4-6.2-25.1-6.7-37.2-11C23.8,45.7,28.5,43.3,36.4,47.1"/>
		</defs>
		<clipPath id="SVGID_41_">
			<use xlink:href="#SVGID_40_"  style="overflow:visible;"/>
		</clipPath>
		
			<linearGradient id="SVGID_42_" gradientUnits="userSpaceOnUse" x1="-189.9969" y1="393.8011" x2="-189.4582" y2="393.8011" gradientTransform="matrix(79.2154 -46.4754 -46.4754 -79.2154 33359.3984 22426.4316)">
			<stop  offset="0" style="stop-color:#ECBC21"/>
			<stop  offset="0.1151" style="stop-color:#EBA21C"/>
			<stop  offset="0.3603" style="stop-color:#E95F10"/>
			<stop  offset="0.402" style="stop-color:#E9530E"/>
			<stop  offset="0.4905" style="stop-color:#DC4026"/>
			<stop  offset="0.6762" style="stop-color:#BA0E63"/>
			<stop  offset="0.6976" style="stop-color:#B6086A"/>
			<stop  offset="0.7223" style="stop-color:#A90864"/>
			<stop  offset="0.8517" style="stop-color:#6A0648"/>
			<stop  offset="0.9463" style="stop-color:#430436"/>
			<stop  offset="0.9955" style="stop-color:#34042F"/>
			<stop  offset="1" style="stop-color:#34042F"/>
		</linearGradient>
		<polygon class="st14" points="8.2,38.1 48.4,14.5 68.1,48 27.9,71.6 		"/>
	</g>
	<g>
		<defs>
			<path id="SVGID_43_" d="M52.4,54.9c1.3-2.7,2.5-5.5,3.8-8.2c-8.5-13-23.9-8.8-34.5-14.7C24.6,47,33.4,48.5,52.4,54.9"/>
		</defs>
		<clipPath id="SVGID_44_">
			<use xlink:href="#SVGID_43_"  style="overflow:visible;"/>
		</clipPath>
		
			<linearGradient id="SVGID_45_" gradientUnits="userSpaceOnUse" x1="-189.544" y1="394.3202" x2="-189.0051" y2="394.3202" gradientTransform="matrix(67.6332 -34.4609 -34.4609 -67.6332 26427.377 20190.8398)">
			<stop  offset="0" style="stop-color:#ECBC21"/>
			<stop  offset="0.1151" style="stop-color:#EBA21C"/>
			<stop  offset="0.3603" style="stop-color:#E95F10"/>
			<stop  offset="0.402" style="stop-color:#E9530E"/>
			<stop  offset="0.4905" style="stop-color:#DC4026"/>
			<stop  offset="0.6762" style="stop-color:#BA0E63"/>
			<stop  offset="0.6976" style="stop-color:#B6086A"/>
			<stop  offset="0.7223" style="stop-color:#A90864"/>
			<stop  offset="0.8517" style="stop-color:#6A0648"/>
			<stop  offset="0.9463" style="stop-color:#430436"/>
			<stop  offset="0.9955" style="stop-color:#34042F"/>
			<stop  offset="1" style="stop-color:#34042F"/>
		</linearGradient>
		<polygon class="st15" points="12.5,36.8 49.1,18.2 65.4,50.2 28.8,68.9 		"/>
	</g>
	<g>
		<defs>
			<path id="SVGID_46_" d="M52.5,46.8l7.7,0.5l-3.7-8.2c-9.7-8.5-7.8-9.2-33-15C27.3,38.1,37.8,44.3,52.5,46.8"/>
		</defs>
		<clipPath id="SVGID_47_">
			<use xlink:href="#SVGID_46_"  style="overflow:visible;"/>
		</clipPath>
		
			<linearGradient id="SVGID_48_" gradientUnits="userSpaceOnUse" x1="-190.2996" y1="393.7098" x2="-189.7605" y2="393.7098" gradientTransform="matrix(82.1296 -47.9927 -47.9927 -82.1296 34546.1836 23249.7324)">
			<stop  offset="0" style="stop-color:#ECBC21"/>
			<stop  offset="0.1151" style="stop-color:#EBA21C"/>
			<stop  offset="0.3603" style="stop-color:#E95F10"/>
			<stop  offset="0.402" style="stop-color:#E9530E"/>
			<stop  offset="0.4905" style="stop-color:#DC4026"/>
			<stop  offset="0.6762" style="stop-color:#BA0E63"/>
			<stop  offset="0.6976" style="stop-color:#B6086A"/>
			<stop  offset="0.7223" style="stop-color:#A90864"/>
			<stop  offset="0.8517" style="stop-color:#6A0648"/>
			<stop  offset="0.9463" style="stop-color:#430436"/>
			<stop  offset="0.9955" style="stop-color:#34042F"/>
			<stop  offset="1" style="stop-color:#34042F"/>
		</linearGradient>
		<polygon class="st16" points="13.5,30 50.9,8.2 70.3,41.4 32.9,63.3 		"/>
	</g>
	<g>
		<defs>
			<path id="SVGID_49_" d="M21.6,44.6c12.3,10,26.9,5.5,32.1,10.8l6-2.4L55,46.9c-5.1-1.4-10.5-4.3-19.3-4.3
				C31.8,42.6,27.2,43.1,21.6,44.6"/>
		</defs>
		<clipPath id="SVGID_50_">
			<use xlink:href="#SVGID_49_"  style="overflow:visible;"/>
		</clipPath>
		
			<linearGradient id="SVGID_51_" gradientUnits="userSpaceOnUse" x1="-189.4582" y1="392.5524" x2="-188.9195" y2="392.5524" gradientTransform="matrix(53.1082 -69.4626 -69.4626 -53.1082 37355.1484 7756.1548)">
			<stop  offset="0" style="stop-color:#ECBC21"/>
			<stop  offset="0.1151" style="stop-color:#EBA21C"/>
			<stop  offset="0.3603" style="stop-color:#E95F10"/>
			<stop  offset="0.402" style="stop-color:#E9530E"/>
			<stop  offset="0.4905" style="stop-color:#DC4026"/>
			<stop  offset="0.6762" style="stop-color:#BA0E63"/>
			<stop  offset="0.6976" style="stop-color:#B6086A"/>
			<stop  offset="0.7223" style="stop-color:#A90864"/>
			<stop  offset="0.8517" style="stop-color:#6A0648"/>
			<stop  offset="0.9463" style="stop-color:#430436"/>
			<stop  offset="0.9955" style="stop-color:#34042F"/>
			<stop  offset="1" style="stop-color:#34042F"/>
		</linearGradient>
		<polygon class="st17" points="15.4,50.7 35.7,24.2 65.9,47.3 45.7,73.8 		"/>
	</g>
	<g>
		<defs>
			<path id="SVGID_52_" d="M51.1,46.2c-13.9-2.9-19.1-3.8-27.8-2.4c8.7,4.5,29.1,8.3,37.3,23.6V50.4v-4.3
				c-1.2-7.5-9.9-16.4-38.6-21.5C22.5,30.6,33.1,42.3,51.1,46.2"/>
		</defs>
		<clipPath id="SVGID_53_">
			<use xlink:href="#SVGID_52_"  style="overflow:visible;"/>
		</clipPath>
		
			<linearGradient id="SVGID_54_" gradientUnits="userSpaceOnUse" x1="-191.5078" y1="393.598" x2="-190.9689" y2="393.598" gradientTransform="matrix(134.5889 -52.2036 -52.2036 -134.5889 46329.1445 43035.7227)">
			<stop  offset="0" style="stop-color:#ECBC21"/>
			<stop  offset="0.1151" style="stop-color:#EBA21C"/>
			<stop  offset="0.3603" style="stop-color:#E95F10"/>
			<stop  offset="0.402" style="stop-color:#E9530E"/>
			<stop  offset="0.4905" style="stop-color:#DC4026"/>
			<stop  offset="0.6762" style="stop-color:#BA0E63"/>
			<stop  offset="0.6976" style="stop-color:#B6086A"/>
			<stop  offset="0.7223" style="stop-color:#A90864"/>
			<stop  offset="0.8517" style="stop-color:#6A0648"/>
			<stop  offset="0.9463" style="stop-color:#430436"/>
			<stop  offset="0.9955" style="stop-color:#34042F"/>
			<stop  offset="1" style="stop-color:#34042F"/>
		</linearGradient>
		<polygon class="st18" points="7.5,30.2 55.5,11.6 75,61.7 27,80.3 		"/>
	</g>
</g>
</svg>
